<?xml version="1.0" encoding="UTF-8"?>
<svg xmlns="http://www.w3.org/2000/svg" id="Layer_1" data-name="Layer 1" viewBox="0 0 24 24">
  <path d="m16.914,1h2.086c.621,0,1.215.114,1.764.322l-5.678,5.678h-4.172l6-6Zm7.086,6v-1c0-1.4-.579-2.668-1.51-3.576l-4.576,4.576h6.086ZM10.522,1l-6.084,6h3.648L14.086,1h-3.564ZM1.59,7L7.674,1h-2.674C2.243,1,0,3.243,0,6v1h1.59Zm22.41,2v9c0,2.757-2.243,5-5,5H5c-2.757,0-5-2.243-5-5v-9h24Zm-8.953,6.2l-4.634-2.48c-.622-.373-1.413.075-1.413.8v4.961c0,.725.791,1.173,1.413.8l4.634-2.48c.604-.362.604-1.238,0-1.6Z" fill="#f7f7f7"/>
</svg>
